<?xml version="1.0" encoding="UTF-8"?>
<svg xmlns="http://www.w3.org/2000/svg" version="1.1" viewBox="0 0 720 480">
  <defs>
    <style>
      .st0 {
        fill: #444464;
        stroke: #444464;
        stroke-miterlimit: 10;
        stroke-width: .8px;
      }

      /* 全文字を初期状態で透明にする */
      #_共, #_に, #_着, #_実, #_に1, #_歩, #_む, #_x3002_ {
        opacity: 0;
      }

      /* 共 */
      #_共 {
        animation: fadeIn 0.6s ease-in-out 0.3s forwards;
      }
      /* に (1st) */
      #_に {
        animation: fadeIn 0.6s ease-in-out 0.8s forwards;
      }
      /* 着 */
      #_着 {
        animation: fadeIn 0.6s ease-in-out 1.3s forwards;
      }
      /* 実 */
      #_実 {
        animation: fadeIn 0.6s ease-in-out 1.8s forwards;
      }
      /* に (2nd) */
      #_に1 {
        animation: fadeIn 0.6s ease-in-out 2.3s forwards;
      }
      /* 歩 */
      #_歩 {
        animation: fadeIn 0.6s ease-in-out 2.8s forwards;
      }
      /* む */
      #_む {
        animation: fadeIn 0.6s ease-in-out 3.3s forwards;
      }
      /* 。 */
      #_x3002_ {
        animation: fadeIn 0.6s ease-in-out 3.8s forwards;
      }

      @keyframes fadeIn {
        0% {
          opacity: 0;
        }
        100% {
          opacity: 1;
        }
      }
    </style>
  </defs>
  <g id="_共" data-name="共">
    <path class="st0" d="M146.8,241.8c1.5,0,2.4,1.3,2.4,3s-.9,2.9-2.4,2.9h-67.3c-1.4,0-2.3-1.2-2.3-2.9s.9-3,2.3-3h16.5v-20.2h-13.5c-1.4,0-2.3-1.2-2.3-2.9s.8-2.9,2.2-2.9h13.6v-12.5c0-1.7,1.2-2.4,3.1-2.4s3.1.8,3.1,2.4v12.5h21.5v-12.4c0-1.7,1.3-2.4,3.1-2.4s3.1.8,3.1,2.4v12.4h13.8c1.4,0,2.4,1.3,2.4,2.9s-.9,2.9-2.3,2.9h-13.9v20.2h17ZM105.3,254.1c0,.6-.2,1.3-.8,2-5.3,6.5-13.2,12.5-21.1,16.1-.5.2-1,.4-1.6.4-1.1,0-2.2-.6-2.8-1.7-.3-.6-.5-1.2-.5-1.7,0-1,.6-2.1,1.7-2.6,7.5-3.4,14.6-8.3,19.2-14.4.6-.8,1.5-1.2,2.4-1.2s1.4.2,2.1.7c.9.6,1.4,1.4,1.4,2.4ZM123.6,221.6h-21.5v20.2h21.5v-20.2ZM123.7,250.8c.9,0,1.8.4,2.5,1.3,5.1,6.4,12.1,11,19.8,14.3,1.2.6,1.8,1.6,1.8,2.7s-.2,1.1-.4,1.7c-.7,1.3-1.7,2-2.8,2s-1-.2-1.6-.4c-8.4-3.7-16-9.5-21.8-16.4-.6-.6-.9-1.3-.9-2.1s.6-1.8,1.6-2.4c.6-.4,1.2-.6,1.8-.6Z"/>
  </g>
  <g id="_に" data-name="に">
    <path class="st0" d="M173.8,206.4c0,.3,0,.6-.2,1-2.8,10.5-4.3,22.9-4.3,34.5s.7,16.2,2.1,23.5c0,.4,0,.8,0,1.2,0,1.8-1,2.8-2.7,3.2-.3,0-.6,0-.9,0-1.5,0-2.7-.9-3.1-3-1.5-7.3-2.2-15.8-2.2-24.6s1.5-25.1,4.5-36.2c.5-1.7,1.7-2.4,3.2-2.4s.6,0,.9,0c1.6.2,2.7,1.2,2.7,2.7ZM191.9,239.6c0,.8-.4,1.5-1,2.1-3.3,3.2-4.6,6.2-4.6,9.1,0,4.9,4.3,7.4,15.3,7.4s14-.7,19.4-1.9c.3,0,.6,0,.9,0,1.6,0,2.8,1,3.1,2.6,0,.3,0,.6,0,.9,0,1.6-.9,3.1-2.7,3.4-5.8,1.2-12.8,1.7-20,1.7-14.5,0-22.2-4.1-22.2-14s2-9.3,6-13.1c.9-.8,1.8-1.2,2.7-1.2s1.4.3,2,.9c.7.7,1,1.4,1,2.1ZM218.8,212.1c2,0,3,1.1,3.2,2.9v.2c0,1.8-.8,3.3-3.1,3.5-6.6.8-16.1,1.2-24.7,1.2s-5.8,0-8.4-.2c-2.4,0-3.3-1.7-3.3-3.5,0-1.7,1.2-3.3,3.2-3.3h.2c2.5,0,5.4.2,8.3.2,8.4,0,17.5-.4,23.9-1.1h.6Z"/>
  </g>
  <g id="_着" data-name="着">
    <path class="st0" d="M258.8,233.1c-.5,1.8-1,3.6-1.6,5.4,1.1-.5,2.4-.8,4-.8h31.4c4.7,0,6.8,1.7,6.8,6v21.8c0,4.3-2.1,6.1-6.8,6.1h-33.7c-4.7,0-6.7-1.7-6.7-6.1v-9.6c0-2.1.2-5.4.6-8-2.9,7.6-7.7,14.1-12.5,19-.7.7-1.6,1.2-2.5,1.2s-1.7-.3-2.4-1-.9-1.4-.9-2.1.4-1.8,1.1-2.4c7.7-6.9,14.6-17.8,17.2-29.5h-15.5c-1.3,0-2.1-.9-2.1-2.4s.8-2.4,2.1-2.4h30.6v-5.2h-23.9c-1.3,0-2-.9-2-2.4s.7-2.3,2-2.3h23.9v-5.1h-27.6c-1.3,0-2.1-.9-2.1-2.4s.8-2.4,2.1-2.4h17.6c-1.4-2.1-2.9-4-4.3-5.6-.2-.3-.4-.7-.4-1.1,0-.8.5-1.5,1.5-2,.6-.2,1.1-.4,1.6-.4.9,0,1.7.4,2.1,1,1.7,2.1,3.7,5,5.6,8h13.5c2.4-2.6,4.6-5.5,5.9-7.8.5-.8,1.3-1.3,2.4-1.3s.9,0,1.4.2c1.2.4,1.8,1.1,1.8,2s-.2.8-.4,1.2c-1.3,1.9-2.8,3.8-4.8,5.8h17.7c1.3,0,2.1.9,2.1,2.4s-.8,2.4-2.1,2.4h-28.3v5.1h24.5c1.2,0,2,.9,2,2.3s-.8,2.4-2,2.4h-24.5v5.2h31.5c1.3,0,2.1.9,2.1,2.4s-.8,2.4-2.1,2.4h-45.9ZM293.6,247.4v-3.1c0-1.5-.7-2-2.3-2h-31.1c-1.6,0-2.3.5-2.3,2v3.1h35.7ZM293.6,256.8v-5h-35.7v5h35.7ZM257.9,264.9c0,1.5.7,2,2.3,2h31.1c1.6,0,2.3-.6,2.3-2v-3.6h-35.7v3.6Z"/>
  </g>
  <g id="_実" data-name="実">
    <path class="st0" d="M352.9,250.4c5.5,8.8,16.7,14.4,30.1,16.4,1.3.2,2.4,1.3,2.4,2.8s0,.6,0,.8c-.4,1.8-1.7,2.6-3.2,2.6s-.4,0-.6,0c-14.4-2.4-26.7-8.9-33.8-20-1.1,2.4-2.5,4.6-4.1,6.5-6.2,7.6-15.9,11.7-25.2,13.6-.4,0-.7,0-1,0-1.4,0-2.5-.8-2.9-2.3-.2-.3-.2-.7-.2-1,0-1.4.8-2.6,2.2-2.8,8.7-1.7,17.7-5.1,22.5-10.9,1.5-1.9,2.8-3.8,3.7-5.7h-26c-1.3,0-2.2-.9-2.2-2.6s.9-2.5,2.2-2.5h27.9c.6-2.3.9-4.7,1.2-7h-20.2c-1.3,0-2.1-1-2.1-2.5s.8-2.4,2.1-2.4h20.6v-1.7c0-1.6.2-3.2.2-4.7h-21.4c-1.4,0-2.1-1-2.1-2.5s.7-2.4,2.1-2.4h21.5c0-1.5,0-3.1,0-4.7s.9-2.4,2.7-2.4,2.8.7,2.8,2.2,0,3.4,0,4.9h22.4c1.3,0,2.1.9,2.1,2.4s-.8,2.5-2.1,2.5h-22.4v1c0,1.7,0,3.5-.2,5.4h21.6c1.3,0,2.1.9,2.1,2.4s-.8,2.5-2.1,2.5h-21.9c-.2,2.4-.6,4.7-1,7h32.5c1.3,0,2.2.9,2.2,2.5s-.9,2.6-2.2,2.6h-30ZM377,207.8c4.7,0,6.8,2,6.8,6.5v7.6c0,1.7-1.1,2.4-3,2.4s-2.9-.8-2.9-2.4v-6.8c0-1.6-.8-2.1-2.4-2.1h-51.4c-1.7,0-2.5.5-2.5,2.1v6.7c0,1.5-1.1,2.3-2.9,2.3s-3-.8-3-2.4v-7.6c0-4.5,2.1-6.5,6.9-6.5h23.7v-5.1c0-1.7.9-2.6,3-2.6s3,.9,3,2.6v5.1h24.9Z"/>
  </g>
  <g id="_に1" data-name="に">
    <path class="st0" d="M410.4,206.4c0,.3,0,.6-.2,1-2.8,10.5-4.3,22.9-4.3,34.5s.7,16.2,2,23.5c0,.4,0,.8,0,1.2,0,1.8-1,2.8-2.7,3.2-.3,0-.6,0-.9,0-1.5,0-2.7-.9-3.1-3-1.5-7.3-2.2-15.8-2.2-24.6s1.5-25.1,4.5-36.2c.5-1.7,1.7-2.4,3.2-2.4s.6,0,.9,0c1.6.2,2.7,1.2,2.7,2.7ZM428.5,239.6c0,.8-.4,1.5-1,2.1-3.3,3.2-4.6,6.2-4.6,9.1,0,4.9,4.3,7.4,15.3,7.4s14-.7,19.4-1.9c.3,0,.6,0,.9,0,1.6,0,2.8,1,3.1,2.6,0,.3,0,.6,0,.9,0,1.6-.9,3.1-2.7,3.4-5.8,1.2-12.8,1.7-20,1.7-14.5,0-22.2-4.1-22.2-14s2-9.3,6-13.1c.9-.8,1.8-1.2,2.7-1.2s1.4.3,2.1.9c.7.7,1,1.4,1,2.1ZM455.4,212.1c2,0,3,1.1,3.2,2.9v.2c0,1.8-.8,3.3-3.1,3.5-6.6.8-16.1,1.2-24.7,1.2s-5.8,0-8.4-.2c-2.4,0-3.3-1.7-3.3-3.5,0-1.7,1.2-3.3,3.2-3.3h.2c2.5,0,5.4.2,8.3.2,8.4,0,17.5-.4,23.9-1.1h.6Z"/>
  </g>
  <g id="_歩" data-name="歩">
    <path class="st0" d="M541.2,224.4c1.4,0,2.2,1.2,2.2,2.8s-.8,2.8-2.2,2.8h-30.2v17.5c0,5.2-2.8,7.1-8.6,7.1s-5-.2-7.2-.6c-1.2-.2-2.1-1.3-2.1-2.8s0-.5,0-.7c.3-1.3,1.1-2,2.3-2s.5,0,.8,0c1.5.3,3.6.6,5.4.6s3.1-.6,3.1-2.7v-16.4h-31.1c-1.5,0-2.3-1.1-2.3-2.8s.8-2.8,2.3-2.8h11.4v-16.2c0-1.3,1.3-2.1,3.1-2.1s3,.8,3,2.1v16.2h13.8v-22.3c0-1.5,1.2-2.4,3-2.4s3,.9,3,2.4v6.7h23.7c1.4,0,2.2,1.3,2.2,2.8s-.8,2.9-2.2,2.9h-23.7v9.9h30.2ZM494.4,236.6c0,.5-.2.9-.4,1.3-4.7,7-10.9,12.5-16.8,16.3-.6.4-1.3.6-2,.6s-1.9-.4-2.6-1.3c-.5-.6-.7-1.4-.7-2.1,0-.9.4-1.7,1.1-2.2,5.8-3.6,11.7-8.8,15.6-14.7.5-.7,1.3-1.1,2.2-1.1s1.3.2,1.9.6c1,.6,1.7,1.7,1.7,2.6ZM528.6,249.3c0,.8-.3,1.6-.9,2.2-10.4,12.3-29.1,20.3-48.1,21.5h-.3c-1.6,0-3-.7-3.3-2.5,0-.2,0-.5,0-.6,0-1.7,1.1-2.9,2.8-3.1,18.5-.8,35-8.2,44.6-19.6.6-.6,1.3-.9,2.1-.9s1.5.3,2.1.9c.7.6,1,1.4,1,2.2ZM542.1,246.1c.9.5,1.3,1.4,1.3,2.4s-.2,1.3-.6,2c-.6,1-1.6,1.6-2.7,1.6s-1-.2-1.6-.4c-5.8-3.2-12.1-8.2-17.2-14.1-.4-.5-.6-.9-.6-1.4,0-.9.5-1.7,1.3-2.4.6-.5,1.3-.8,2.1-.8s1.3.2,1.8.8c4.4,4.9,10.3,9.5,16,12.4Z"/>
  </g>
  <g id="_む" data-name="む">
    <path class="st0" d="M567.7,252.7c-1.4,1-2.8,1.6-4.3,1.6h-.3c-4.9-.2-9.5-4.4-9.5-12.3s6.1-15.9,13.4-15.9,2.8.3,3.6.7c0-2.8,0-5.8,0-8.4-3.4.2-6.6.3-9.7.3s-3,0-4.4,0c-1.5,0-2.7-1-2.7-2.8s1.1-2.9,2.5-2.9c1.1,0,2.4,0,3.5,0,3.4,0,7,0,10.8-.2,0-2.4,0-5,0-7.9,0-2.1,1.2-3.1,3.1-3.1s3.2,1.1,3.2,2.8c0,2.7,0,5.2-.2,7.8,5.3-.3,10.6-.8,15.1-1.4h.5c1.3,0,2.3.9,2.6,2.5v.6c0,1.4-.9,2.4-2.3,2.6-4.7.6-10.3,1.2-16,1.5,0,3.9,0,8.2,0,12.5,1.3,2.3,1.7,5.3,1.7,8,0,4.5-1.3,8.1-3.7,11.6-2.4,3.5-3.3,5.6-3.3,7.6,0,4.3,4.1,5.5,14.2,5.5s14.2-.9,17.6-2.6c2.9-1.5,4.6-3.9,4.6-7.9s-1.3-6.8-2.9-10c-.2-.5-.4-1-.4-1.5,0-1.2.7-2.4,2-2.8.5-.2.9-.2,1.3-.2,1.3,0,2.4.7,3.1,2.1,1.9,3.9,3.5,8.8,3.5,12.9,0,6.5-2.5,10.5-7.6,12.9-4.6,2.2-11,3.3-21.1,3.3-14.6,0-20.4-3.2-20.4-9.8s.9-4.8,2.8-6.7l-.3-.5ZM567.2,231.4c-4.2,0-7.7,4-7.7,10.2s2.8,7.3,5.7,7.3c4.1,0,7.3-5.2,7.3-10.2s-1.5-7.3-5.3-7.3ZM621.1,226.3c0,.9-.4,2-1.3,2.7-.6.5-1.3.7-2.1.7s-2-.4-2.7-1.3c-3.7-5-8.6-10-14-14-.6-.6-.9-1.3-.9-2.1s.3-1.6.9-2.3c.6-.7,1.6-1.1,2.4-1.1s1.4.2,2.1.7c5.4,3.9,11,9.4,14.9,14.8.4.6.6,1.3.6,2Z"/>
  </g>
  <g id="_x3002_">
    <path class="st0" d="M654.7,260.2c0,6.8-5.5,12.3-12.3,12.3s-12.3-5.5-12.3-12.3,5.5-12.3,12.3-12.3,12.3,5.5,12.3,12.3ZM635.1,260.2c0,3.9,3.4,7.3,7.3,7.3s7.3-3.4,7.3-7.3-3.4-7.3-7.3-7.3-7.3,3.4-7.3,7.3Z"/>
  </g>
</svg>
