<?xml version="1.0" encoding="UTF-8"?>
<svg xmlns="http://www.w3.org/2000/svg" version="1.1" viewBox="0 0 512 512">
  <!-- Generator: Adobe Illustrator 30.1.0, SVG Export Plug-In . SVG Version: 2.1.1 Build 136)  -->
  <defs>
    <style>
      .st0 {
        fill: #b9b6be;
      }
    </style>
  </defs>
  <g id="scene1">
    <path class="st0" d="M156.2,470.6c-38.7,0-70.2-31.5-70.2-70.2s31.5-70.2,70.2-70.2,70.2,31.5,70.2,70.2-31.5,70.2-70.2,70.2ZM156.2,344.8c-30.7,0-55.7,25-55.7,55.7s25,55.7,55.7,55.7,55.7-25,55.7-55.7-25-55.7-55.7-55.7Z"/>
  </g>
  <g id="scene2">
    <path class="st0" d="M156.2,344.8c-4,0-7.2-3.2-7.2-7.2v-160.7c0-4,3.2-7.2,7.2-7.2s7.2,3.2,7.2,7.2v160.7c0,4-3.2,7.2-7.2,7.2Z"/>
  </g>
  <g id="scene3">
    <path class="st0" d="M156.2,184c-38.7,0-70.2-31.5-70.2-70.2s31.5-70.2,70.2-70.2,70.2,31.5,70.2,70.2-31.5,70.2-70.2,70.2ZM156.2,58.1c-30.7,0-55.7,25-55.7,55.7s25,55.7,55.7,55.7,55.7-25,55.7-55.7-25-55.7-55.7-55.7Z"/>
  </g>
  <g id="scene4">
    <path class="st0" d="M156.2,326.5c-.9,0-1.9-.2-2.8-.6-3.7-1.5-5.4-5.8-3.9-9.5,1.2-2.9,30-70.1,78.6-72.3,6.9-.3,14.9-.2,23.4,0,31.1.6,69.8,1.2,89.7-19.4,10.4-10.7,14.9-26.3,13.8-47.6-.2-4,2.9-7.4,6.9-7.6,4-.2,7.4,2.9,7.6,6.9,1.3,25.1-4.8,44.8-17.9,58.4-24.3,25.2-66.5,24.4-100.4,23.8-8.2-.1-16-.3-22.5,0-39.4,1.8-65.6,62.8-65.9,63.4-1.2,2.8-3.8,4.4-6.7,4.4Z"/>
  </g>
  <g id="scene5">
    <path class="st0" d="M364.7,184c-38.7,0-70.2-31.5-70.2-70.2s31.5-70.2,70.2-70.2,70.2,31.5,70.2,70.2-31.5,70.2-70.2,70.2ZM364.7,58.1c-30.7,0-55.7,25-55.7,55.7s25,55.7,55.7,55.7,55.7-25,55.7-55.7-25-55.7-55.7-55.7Z"/>
  </g>
</svg>