<?xml version="1.0" encoding="UTF-8"?>
<svg xmlns="http://www.w3.org/2000/svg" version="1.1" viewBox="0 0 512 512">
  <defs>
    <style>
      .st0 { fill: #b9b6be; }
    </style>

    <!-- Scene2: 下(Scene1側)から上(Scene3側)へ線が伸びるクリップ -->
    <clipPath id="clip-line1">
      <!-- y=337.6(下端)から上へ height が伸びる -->
      <rect x="140" width="33">
        <animate attributeName="y" from="337.6" to="169.7" dur="0.17s" begin="0.2s" fill="freeze"/>
        <animate attributeName="height" from="0" to="167.9" dur="0.17s" begin="0.2s" fill="freeze"/>
      </rect>
    </clipPath>

    <!-- Scene4: 曲線パスを描画するためのクリップ（左下から右上へ） -->
    <clipPath id="clip-line2">
      <rect x="140" y="160" width="0" height="180">
        <animate attributeName="width" from="0" to="310" dur="0.2s" begin="0.58s" fill="freeze"/>
      </rect>
    </clipPath>
  </defs>

  <!-- ============================================ -->
  <!-- Scene1: 下の円 (中心 156.2, 400.4)           -->
  <!-- 0% → 150% → 100% バウンス拡大                -->
  <!-- タイミング: 0s ~ 0.2s                         -->
  <!-- ============================================ -->
  <g id="scene1">
    <g transform="translate(156.2, 400.4)">
      <g>
        <animateTransform attributeName="transform" type="scale"
          values="0;1.5;1" keyTimes="0;0.6;1"
          dur="0.2s" begin="0s" fill="freeze"/>
        <g transform="translate(-156.2, -400.4)">
          <path class="st0" d="M156.2,470.6c-38.7,0-70.2-31.5-70.2-70.2s31.5-70.2,70.2-70.2,70.2,31.5,70.2,70.2-31.5,70.2-70.2,70.2ZM156.2,344.8c-30.7,0-55.7,25-55.7,55.7s25,55.7,55.7,55.7,55.7-25,55.7-55.7-25-55.7-55.7-55.7Z"/>
        </g>
      </g>
    </g>
  </g>

  <!-- ============================================ -->
  <!-- Scene2: 縦線 (Scene1 → Scene3)               -->
  <!-- 下(Scene1)から上(Scene3)へ伸びる              -->
  <!-- タイミング: 0.2s ~ 0.37s                       -->
  <!-- ============================================ -->
  <g id="scene2" clip-path="url(#clip-line1)">
    <path class="st0" d="M156.2,344.8c-4,0-7.2-3.2-7.2-7.2v-160.7c0-4,3.2-7.2,7.2-7.2s7.2,3.2,7.2,7.2v160.7c0,4-3.2,7.2-7.2,7.2Z"/>
  </g>

  <!-- ============================================ -->
  <!-- Scene3: 左上の円 (中心 156.2, 113.8)          -->
  <!-- Scene1と同じバウンス拡大                       -->
  <!-- タイミング: 0.37s ~ 0.57s                       -->
  <!-- ============================================ -->
  <g id="scene3">
    <g transform="translate(156.2, 113.8)">
      <g transform="scale(0)">
        <animateTransform attributeName="transform" type="scale"
          values="0;1.5;1" keyTimes="0;0.6;1"
          dur="0.2s" begin="0.37s" fill="freeze"/>
        <g transform="translate(-156.2, -113.8)">
          <path class="st0" d="M156.2,184c-38.7,0-70.2-31.5-70.2-70.2s31.5-70.2,70.2-70.2,70.2,31.5,70.2,70.2-31.5,70.2-70.2,70.2ZM156.2,58.1c-30.7,0-55.7,25-55.7,55.7s25,55.7,55.7,55.7,55.7-25,55.7-55.7-25-55.7-55.7-55.7Z"/>
        </g>
      </g>
    </g>
  </g>

  <!-- ============================================ -->
  <!-- Scene4: 曲線 (Scene1 → Scene5)               -->
  <!-- 左から右へクリップで表示                       -->
  <!-- タイミング: 0.58s ~ 0.78s                       -->
  <!-- ============================================ -->
  <g id="scene4" clip-path="url(#clip-line2)">
    <path class="st0" d="M156.2,326.5c-.9,0-1.9-.2-2.8-.6-3.7-1.5-5.4-5.8-3.9-9.5,1.2-2.9,30-70.1,78.6-72.3,6.9-.3,14.9-.2,23.4,0,31.1.6,69.8,1.2,89.7-19.4,10.4-10.7,14.9-26.3,13.8-47.6-.2-4,2.9-7.4,6.9-7.6,4-.2,7.4,2.9,7.6,6.9,1.3,25.1-4.8,44.8-17.9,58.4-24.3,25.2-66.5,24.4-100.4,23.8-8.2-.1-16-.3-22.5,0-39.4,1.8-65.6,62.8-65.9,63.4-1.2,2.8-3.8,4.4-6.7,4.4Z"/>
  </g>

  <!-- ============================================ -->
  <!-- Scene5: 右上の円 (中心 364.7, 113.8)          -->
  <!-- Scene1と同じバウンス拡大                       -->
  <!-- タイミング: 0.8s ~ 1.0s                       -->
  <!-- ============================================ -->
  <g id="scene5">
    <g transform="translate(364.7, 113.8)">
      <g transform="scale(0)">
        <animateTransform attributeName="transform" type="scale"
          values="0;1.5;1" keyTimes="0;0.6;1"
          dur="0.2s" begin="0.8s" fill="freeze"/>
        <g transform="translate(-364.7, -113.8)">
          <path class="st0" d="M364.7,184c-38.7,0-70.2-31.5-70.2-70.2s31.5-70.2,70.2-70.2,70.2,31.5,70.2,70.2-31.5,70.2-70.2,70.2ZM364.7,58.1c-30.7,0-55.7,25-55.7,55.7s25,55.7,55.7,55.7,55.7-25,55.7-55.7-25-55.7-55.7-55.7Z"/>
        </g>
      </g>
    </g>
  </g>
</svg>
