<?xml version="1.0" encoding="UTF-8"?>
<svg xmlns="http://www.w3.org/2000/svg" version="1.1" viewBox="0 0 512 512">
  <!-- Generator: Adobe Illustrator 30.1.0, SVG Export Plug-In . SVG Version: 2.1.1 Build 136)  -->
  <defs>
    <style>
      .st0 {
        fill: #b9b6be;
      }
    </style>
  </defs>
  <g id="scene1">
    <g>
      <path class="st0" d="M180.4,481.6c-53.4,0-96.9-53.5-96.9-119.2s43.5-119.2,96.9-119.2,96.9,53.5,96.9,119.2-43.5,119.2-96.9,119.2ZM180.4,259.3c-44.6,0-80.8,46.2-80.8,103.1s36.3,103.1,80.8,103.1,80.8-46.2,80.8-103.1-36.2-103.1-80.8-103.1Z"/>
      <path class="st0" d="M97.2,331.5c-.3,0-.6,0-.9,0-52.2-5.8-61.9-84.4-62.3-87.7-.5-4.4,2.7-8.4,7.1-8.9,4.4-.4,8.4,2.7,8.9,7.1,0,.7,8.6,69.2,48,73.6,4.4.5,7.6,4.5,7.1,8.9-.5,4.1-3.9,7.2-8,7.2Z"/>
      <path class="st0" d="M269.2,331.5c-4.1,0-7.5-3.1-8-7.2-.5-4.4,2.7-8.4,7.1-8.9,39.4-4.3,48-72.9,48-73.6.5-4.4,4.6-7.5,8.9-7.1,4.4.5,7.6,4.5,7.1,8.9-.4,3.3-10.1,82-62.3,87.7-.3,0-.6,0-.9,0Z"/>
      <path class="st0" d="M91.5,370.5h-49.5c-4.4,0-8.1-3.6-8.1-8.1s3.6-8.1,8.1-8.1h49.5c4.4,0,8.1,3.6,8.1,8.1s-3.6,8.1-8.1,8.1Z"/>
      <path class="st0" d="M321.6,370.5h-49.5c-4.4,0-8.1-3.6-8.1-8.1s3.6-8.1,8.1-8.1h49.5c4.4,0,8.1,3.6,8.1,8.1s-3.6,8.1-8.1,8.1Z"/>
      <path class="st0" d="M42.5,490c-.3,0-.6,0-.9,0-4.4-.5-7.6-4.5-7.1-8.9.4-3.3,10.1-82,62.3-87.7,4.4-.5,8.4,2.7,8.9,7.1.5,4.4-2.7,8.4-7.1,8.9-39.4,4.3-48,72.9-48,73.6-.5,4.1-4,7.1-8,7.1Z"/>
      <path class="st0" d="M324.9,490c-4,0-7.5-3-8-7.1,0-.7-8.6-69.2-48-73.6-4.4-.5-7.6-4.5-7.1-8.9.5-4.4,4.5-7.6,8.9-7.1,52.2,5.7,61.9,84.4,62.3,87.7.5,4.4-2.7,8.4-7.1,8.9-.3,0-.6,0-.9,0Z"/>
      <path class="st0" d="M148.2,266.9c-1.5,0-3-.4-4.3-1.3-17.3-11.1-22.8-50.2-23.7-57.9-.5-4.4,2.6-8.4,7-9,4.4-.5,8.4,2.6,9,7,2,16.1,8.3,41.1,16.4,46.3,3.7,2.4,4.8,7.4,2.4,11.1-1.5,2.4-4.1,3.7-6.8,3.7Z"/>
      <path class="st0" d="M212.1,266.9c-2.7,0-5.2-1.3-6.8-3.7-2.4-3.7-1.3-8.7,2.4-11.1,8.1-5.2,14.4-30.2,16.4-46.3.5-4.4,4.5-7.6,9-7,4.4.5,7.6,4.5,7,9-.9,7.7-6.4,46.9-23.7,57.9-1.3.9-2.9,1.3-4.3,1.3Z"/>
    </g>
  </g>
  <g id="scene2">
    <path class="st0" d="M362.8,285.1c-2.8,0-5.6-1.5-7-4.1-2.2-3.9-.8-8.8,3.1-11,.1,0,14.4-8,82.1-44.3,19.6-10.6,30.2-21.4,30.4-31.5.2-10.8-11.7-20.3-16.4-23-1.8-1.3-131.2-91.7-183.9-126.6-22.6-15-31.9-13-34.9-11.4-5.8,3-6.1,12.9-6.1,13v114.3c0,4.5-3.6,8.1-8.1,8.1s-8.1-3.6-8.1-8.1V46.1c0-7.2,3.1-21,14.5-27.1,12.3-6.6,29.1-2.6,51.4,12.1,52.9,35,182.4,125.6,183.7,126.5.5.2,24.2,14.4,23.8,36.8-.3,16.4-13.4,31.7-38.9,45.4-67.5,36.3-81.7,44.2-81.9,44.2-1.2.7-2.6,1-3.9,1Z"/>
  </g>
</svg>