<?xml version="1.0" encoding="UTF-8"?>
<svg xmlns="http://www.w3.org/2000/svg" version="1.1" viewBox="0 0 512 512">
  <!-- Generator: Adobe Illustrator 30.1.0, SVG Export Plug-In . SVG Version: 2.1.1 Build 136)  -->
  <defs>
    <style>
      .st0 {
        fill: #b9b6be;
      }
    </style>
  </defs>
  <g id="scene1">
    <path class="st0" d="M281.4,304.7h-29.2c-2.9,0-5.3-2.4-5.3-5.3v-41c0-2.9,2.4-5.3,5.3-5.3h29.2c2.9,0,5.3,2.4,5.3,5.3v41c0,2.9-2.4,5.3-5.3,5.3ZM252.2,254.1c-2.4,0-4.3,1.9-4.3,4.3v41c0,2.4,1.9,4.3,4.3,4.3h29.2c2.4,0,4.3-1.9,4.3-4.3v-41c0-2.4-1.9-4.3-4.3-4.3h-29.2Z"/>
  </g>
  <g id="scene2">
    <path class="st0" d="M289.3,260.7h-2.6v1h2.6c2.4,0,4.3,1.9,4.3,4.3v39.6c0,2.4-1.9,4.3-4.3,4.3h-28.1c-2.4,0-4.3-1.9-4.3-4.3v-.9h-1v.9c0,2.9,2.4,5.3,5.3,5.3h28.1c2.9,0,5.3-2.4,5.3-5.3v-39.6c0-2.9-2.4-5.3-5.3-5.3Z"/>
  </g>
  <g id="scene3">
    <path class="st0" d="M281.4,253.1h-16.6l-17.9,17.9v28.4c0,2.9,2.4,5.3,5.3,5.3h29.2c2.9,0,5.3-2.4,5.3-5.3v-41c0-2.9-2.4-5.3-5.3-5.3ZM264.3,255.1v15.3h-15.3l15.3-15.3ZM285.7,299.4c0,2.4-1.9,4.3-4.3,4.3h-29.2c-2.4,0-4.3-1.9-4.3-4.3v-28h17.3v-17.3h16.1c2.4,0,4.3,1.9,4.3,4.3v41Z"/>
  </g>
</svg>