<?xml version="1.0" encoding="UTF-8"?>
<svg xmlns="http://www.w3.org/2000/svg" version="1.1" viewBox="0 0 512 512">
  <defs>
    <style>
      .st0 {
        fill: #b9b6be;
      }

      /* Scene1: 円（レンズ）が中心からスケールアップして登場 */
      .lens {
        fill: #b9b6be;
        transform-origin: 198.5px 200.1px;
        animation: lensAppear 0.7s cubic-bezier(0.34, 1.56, 0.64, 1) both;
      }

      @keyframes lensAppear {
        0% {
          transform: scale(0);
          opacity: 0;
        }
        20% {
          opacity: 1;
        }
        100% {
          transform: scale(1);
          opacity: 1;
        }
      }

      /* Scene2: 持ち手がレンズとの接点から伸びる */
      .handle {
        fill: #b9b6be;
        transform-origin: 305.8px 331.4px;
        animation: handleGrow 0.5s cubic-bezier(0.25, 0.46, 0.45, 0.94) 0.6s both;
      }

      @keyframes handleGrow {
        0% {
          transform: scale(0);
          opacity: 0;
        }
        30% {
          opacity: 1;
        }
        100% {
          transform: scale(1);
          opacity: 1;
        }
      }

      /* 全体の緩やかな拡大縮小（呼吸アニメーション） */
      .whole {
        transform-origin: 256px 256px;
        animation: breathe 2.8s ease-in-out 1.3s infinite;
      }

      @keyframes breathe {
        0%, 100% {
          transform: scale(1);
        }
        50% {
          transform: scale(1.06);
        }
      }
    </style>
  </defs>

  <g class="whole">
    <!-- Scene1: レンズ（円のリング） -->
    <g id="scene1">
      <path class="lens" d="M198.5,382c-100.3,0-181.9-81.6-181.9-181.9S98.2,18.3,198.5,18.3s181.9,81.6,181.9,181.9-81.6,181.9-181.9,181.9ZM198.5,44.9c-85.6,0-155.2,69.6-155.2,155.2s69.6,155.2,155.2,155.2,155.2-69.6,155.2-155.2S284.1,44.9,198.5,44.9Z"/>
    </g>

    <!-- Scene2: 持ち手 -->
    <g id="scene2">
      <path class="handle" d="M478.2,489.9c-3.3,0-6.6-1.2-9.2-3.7l-163.2-154.8c-5.3-5.1-5.6-13.5-.5-18.9,5.1-5.4,13.5-5.6,18.9-.5l163.2,154.8c5.3,5.1,5.6,13.5.5,18.9-2.6,2.8-6.1,4.2-9.7,4.2Z"/>
    </g>
  </g>
</svg>
