<?xml version="1.0" encoding="UTF-8"?>
<svg xmlns="http://www.w3.org/2000/svg" version="1.1" viewBox="0 0 512 512">
  <!-- Generator: Adobe Illustrator 30.1.0, SVG Export Plug-In . SVG Version: 2.1.1 Build 136)  -->
  <defs>
    <style>
      .st0 {
        fill: #b9b6be;
      }
    </style>
  </defs>
  <g id="scene1">
    <path class="st0" d="M198.5,382c-100.3,0-181.9-81.6-181.9-181.9S98.2,18.3,198.5,18.3s181.9,81.6,181.9,181.9-81.6,181.9-181.9,181.9ZM198.5,44.9c-85.6,0-155.2,69.6-155.2,155.2s69.6,155.2,155.2,155.2,155.2-69.6,155.2-155.2S284.1,44.9,198.5,44.9Z"/>
  </g>
  <g id="scene2">
    <g>
      <path class="st0" d="M198.5,382c-100.3,0-181.9-81.6-181.9-181.9S98.2,18.3,198.5,18.3s181.9,81.6,181.9,181.9-81.6,181.9-181.9,181.9ZM198.5,44.9c-85.6,0-155.2,69.6-155.2,155.2s69.6,155.2,155.2,155.2,155.2-69.6,155.2-155.2S284.1,44.9,198.5,44.9Z"/>
      <path class="st0" d="M478.2,489.9c-3.3,0-6.6-1.2-9.2-3.7l-163.2-154.8c-5.3-5.1-5.6-13.5-.5-18.9,5.1-5.4,13.5-5.6,18.9-.5l163.2,154.8c5.3,5.1,5.6,13.5.5,18.9-2.6,2.8-6.1,4.2-9.7,4.2Z"/>
    </g>
  </g>
</svg>