<?xml version="1.0" encoding="UTF-8"?>
<svg xmlns="http://www.w3.org/2000/svg" version="1.1" viewBox="0 0 80 80">
  <!-- Generator: Adobe Illustrator 30.2.1, SVG Export Plug-In . SVG Version: 2.1.1 Build 1)  -->
  <defs>
    <style>
      .st0 {
        fill: #3dd1d1;
      }

      .st1 {
        fill: #facc2c;
      }

      .st2 {
        fill: #f7bb4f;
      }

      .st3 {
        fill: #46c3e8;
      }

      .st4 {
        fill: #ffce53;
      }

      .st5 {
        fill: #fff;
      }

      .st6 {
        fill: #fcebb1;
      }

      .st7 {
        fill: #fed474;
        stroke: #c96;
        stroke-miterlimit: 10;
        stroke-width: .5px;
      }

      .st8 {
        fill: #12bae6;
      }

      .st9 {
        fill: #333;
      }
    </style>
  </defs>
  <g id="_顔" data-name="顔">
    <g>
      <circle class="st7" cx="39" cy="34.5" r="28.9"/>
      <path class="st5" d="M24.9,31.1"/>
      <circle class="st4" cx="39.7" cy="35.5" r="28"/>
      <path class="st2" d="M66.3,27c-4.5,17-13.4,27.9-30.6,27.9s-12.8,1.3-17.7-1.8c5.1,6.3,12.9,10.3,21.7,10.3,15.5,0,28-12.5,28-28s-.5-5.8-1.3-8.5Z"/>
      <path class="st5" d="M67.4,22.4s5.4-.5,7.1.8c1.2,1.6-.6,1.2-.6,1.2,0,0-2.7-1.2-6.5-2Z"/>
    </g>
  </g>
  <g id="_目" data-name="目">
    <g>
      <path class="st9" d="M24.7,49.7c-.4,1.9,4,6.3,4,6.3l-4.4-2.4s2,3.1,4.5,4.3c.2,0-4.4-1.2-4.4-1.2,0,0,6.3,4.8,10.6,2-3.1-1.1-9.9-8.6-10.2-8.9Z"/>
      <path class="st9" d="M54.3,49.7c.4,1.9-4,6.3-4,6.3l4.4-2.4s-2,3.1-4.5,4.3c-.2,0,4.4-1.2,4.4-1.2,0,0-6.3,4.8-10.6,2,3.1-1.1,9.9-8.6,10.2-8.9Z"/>
    </g>
  </g>
  <g id="_左腕" data-name="左腕">
    <g>
      <rect class="st0" x="70.9" y="55.4" width="5.6" height="12.8" rx="1.9" ry="1.9" transform="translate(168.5 78.5) rotate(150)"/>
      <path class="st1" d="M68.2,58.5s-10.6-1.7-13,2.3c-4,.5-9.2.5-9.6,1.4s.9,2.4.9,2.4c0,0-2.8.5-2.1,2.3s3.2,1.1,3.2,1.1c0,0-.8,1.4.6,2s2.9.3,2.9.3c0,0-1.6.7.5,1.8,2.2,1.1,17.2-.6,17.2-.6l5.7-4.4-6.4-8.6Z"/>
      <ellipse class="st6" cx="61.4" cy="59.3" rx="3.3" ry=".5" transform="translate(-5.7 6.5) rotate(-5.8)"/>
    </g>
  </g>
  <g id="_右腕" data-name="右腕">
    <g>
      <rect class="st0" x="3.2" y="55.4" width="5.6" height="12.8" rx="1.9" ry="1.9" transform="translate(31.7 5.3) rotate(30)"/>
      <path class="st1" d="M10.6,58.2s10.6-1.7,13,2.3c4,.5,9.2.5,9.6,1.4s-.9,2.4-.9,2.4c0,0,2.8.5,2.1,2.3s-3.2,1.1-3.2,1.1c0,0,.8,1.4-.6,2s-2.9.3-2.9.3c0,0,1.6.7-.5,1.8-2.2,1.1-17.2-.6-17.2-.6l-5.7-4.4,6.4-8.6Z"/>
      <ellipse class="st6" cx="17.4" cy="59" rx=".5" ry="3.3" transform="translate(-43.1 70.4) rotate(-84.2)"/>
    </g>
  </g>
  <g id="_汗" data-name="汗">
    <path class="st3" d="M68.2,39.3s9.2,2.5,9.2,7.4-7.1,6.2-8.5,2.6c-1.4-3.6-.7-10-.7-10Z"/>
    <path class="st8" d="M68.1,45.8s3.1,6.8,9.2,1.3c-.1,2.9-3.3,4.3-5.5,4.2s-3.3-1.7-3.7-5.4Z"/>
    <path class="st3" d="M62.5,21.9s12.7-2.7,15.8,3.2c3.1,5.9-4.7,12-8.7,8.5-3.9-3.5-7.1-11.7-7.1-11.7Z"/>
    <path class="st8" d="M66.6,30s8.1,6.3,11.9-4.3c1.7,3.6-1.2,7.3-4,8.5-2.8,1.2-5.1,0-7.9-4.3Z"/>
  </g>
</svg>