<?xml version="1.0" encoding="UTF-8"?>
<svg width="48px" height="48px" viewBox="0 0 48 48" version="1.1" xmlns="http://www.w3.org/2000/svg" xmlns:xlink="http://www.w3.org/1999/xlink">
    <title>Icon-Resource/Networking-and-Content-Delivery/Res_Amazon-VPC_NAT-Gateway_48_Animated</title>
    <defs>
        <style>
            /* 外円: フェードイン + スケール */
            @keyframes circleAppear {
                0% { opacity: 0; transform: scale(0.85); }
                60% { opacity: 1; transform: scale(1.02); }
                100% { opacity: 1; transform: scale(1); }
            }

            /* 左側の矢印: 左からスライドイン（上から順に遅延） */
            @keyframes arrowSlideLeft {
                0% { opacity: 0; transform: translateX(-6px); }
                70% { opacity: 1; transform: translateX(0.5px); }
                100% { opacity: 1; transform: translateX(0); }
            }

            /* 右側の矢印: 右からスライドイン */
            @keyframes arrowSlideRight {
                0% { opacity: 0; transform: translateX(6px); }
                70% { opacity: 1; transform: translateX(-0.5px); }
                100% { opacity: 1; transform: translateX(0); }
            }

            /* 中央の接続線: 伸びるように登場 */
            @keyframes lineGrow {
                0% { opacity: 0; transform: scaleX(0); }
                100% { opacity: 1; transform: scaleX(1); }
            }

            /* データパルス: 左矢印から右矢印へ流れる光 */
            @keyframes pulseRight {
                0% { opacity: 0; transform: translateX(-14px); }
                20% { opacity: 0.7; }
                80% { opacity: 0.7; }
                100% { opacity: 0; transform: translateX(18px); }
            }

            /* 左矢印の小さなバウンス（データ送信感） */
            @keyframes arrowBounceLeft {
                0%, 100% { transform: translateX(0); }
                50% { transform: translateX(-0.8px); }
            }

            /* 右矢印の小さなバウンス */
            @keyframes arrowBounceRight {
                0%, 100% { transform: translateX(0); }
                50% { transform: translateX(0.8px); }
            }

            .circle-outer {
                animation: circleAppear 0.6s cubic-bezier(0.34, 1.56, 0.64, 1) both;
                transform-origin: 24px 24px;
            }

            .arrow-left-1 {
                animation:
                    arrowSlideLeft 0.5s cubic-bezier(0.25, 1, 0.5, 1) 0.3s both,
                    arrowBounceLeft 2.5s ease-in-out 1.5s infinite;
                transform-origin: 14px 14.4px;
            }

            .arrow-left-2 {
                animation:
                    arrowSlideLeft 0.5s cubic-bezier(0.25, 1, 0.5, 1) 0.45s both,
                    arrowBounceLeft 2.5s ease-in-out 1.7s infinite;
                transform-origin: 14px 24.9px;
            }

            .arrow-left-3 {
                animation:
                    arrowSlideLeft 0.5s cubic-bezier(0.25, 1, 0.5, 1) 0.6s both,
                    arrowBounceLeft 2.5s ease-in-out 1.9s infinite;
                transform-origin: 14px 34.5px;
            }

            .center-line {
                animation: lineGrow 0.5s ease-out 0.7s both;
                transform-origin: 18.9px 24.9px;
            }

            .arrow-right {
                animation:
                    arrowSlideRight 0.6s cubic-bezier(0.25, 1, 0.5, 1) 0.9s both,
                    arrowBounceRight 2.5s ease-in-out 2.0s infinite;
                transform-origin: 38px 24.9px;
            }

            .data-pulse {
                animation: pulseRight 2.5s ease-in-out 1.5s infinite;
                transform-origin: 24px 24.9px;
            }
        </style>
    </defs>

    <g id="NAT-Gateway-Animated" stroke="none" stroke-width="1" fill="none" fill-rule="evenodd">

        <!-- 外円 -->
        <g class="circle-outer">
            <path d="M24.0005,44.0029 C12.9725,44.0029 3.9995,35.0299 3.9995,24.0009 C3.9995,12.9729 12.9725,3.9999 24.0005,3.9999 C35.0295,3.9999 44.0025,12.9729 44.0025,24.0009 C44.0025,35.0299 35.0295,44.0029 24.0005,44.0029 L24.0005,44.0029 Z M24.0005,1.9999 C11.8685,1.9999 1.9995,11.8689 1.9995,24.0009 C1.9995,36.1329 11.8685,46.0029 24.0005,46.0029 C36.1325,46.0029 46.0025,36.1329 46.0025,24.0009 C46.0025,11.8689 36.1325,1.9999 24.0005,1.9999 L24.0005,1.9999 Z" fill="#8C4FFF"/>
        </g>

        <!-- 左矢印1（上） -->
        <g class="arrow-left-1">
            <path d="M13.6255,15.7949 L13.6255,12.9569 L15.3995,14.3759 L13.6255,15.7949 Z M13.2505,10.0949 C12.9495,9.8539 12.5365,9.8069 12.1915,9.9749 C11.8465,10.1419 11.6255,10.4909 11.6255,10.8759 L11.6255,17.8759 C11.6255,18.2609 11.8465,18.6099 12.1915,18.7769 C12.3305,18.8439 12.4785,18.8759 12.6255,18.8759 C12.8485,18.8759 13.0695,18.8019 13.2505,18.6569 L17.6255,15.1569 C17.8625,14.9669 18.0005,14.6799 18.0005,14.3759 C18.0005,14.0719 17.8625,13.7849 17.6255,13.5949 L13.2505,10.0949 Z" fill="#8C4FFF"/>
        </g>

        <!-- 左矢印2（中） -->
        <g class="arrow-left-2">
            <path d="M13.6255,26.2959 L13.6255,23.4569 L15.3995,24.8759 L13.6255,26.2959 Z M13.2505,20.5949 C12.9495,20.3539 12.5365,20.3079 12.1915,20.4749 C11.8465,20.6419 11.6255,20.9909 11.6255,21.3759 L11.6255,28.3769 C11.6255,28.7619 11.8465,29.1109 12.1915,29.2779 C12.3305,29.3449 12.4785,29.3769 12.6255,29.3769 C12.8485,29.3769 13.0695,29.3029 13.2505,29.1579 L17.6255,25.6569 C17.8625,25.4669 18.0005,25.1799 18.0005,24.8759 C18.0005,24.5719 17.8625,24.2849 17.6255,24.0949 L13.2505,20.5949 Z" fill="#8C4FFF"/>
        </g>

        <!-- 左矢印3（下） -->
        <g class="arrow-left-3">
            <path d="M13.6255,35.9209 L13.6255,33.0829 L15.3995,34.5019 L13.6255,35.9209 Z M13.2505,30.2209 C12.9495,29.9799 12.5365,29.9329 12.1915,30.1009 C11.8465,30.2679 11.6255,30.6169 11.6255,31.0019 L11.6255,38.0019 C11.6255,38.3869 11.8465,38.7359 12.1915,38.9029 C12.3305,38.9699 12.4785,39.0019 12.6255,39.0019 C12.8485,39.0019 13.0695,38.9279 13.2505,38.7829 L17.6255,35.2829 C17.8625,35.0929 18.0005,34.8059 18.0005,34.5019 C18.0005,34.1979 17.8625,33.9109 17.6255,33.7209 L13.2505,30.2209 Z" fill="#8C4FFF"/>
        </g>

        <!-- 中央の接続線（縦線 + 横線） -->
        <g class="center-line">
            <path d="M27.6255,14.3759 C27.6255,13.8229 27.1785,13.3759 26.6255,13.3759 L18.9315,13.3759 L18.9315,15.3759 L25.6255,15.3759 L25.6255,23.8759 L18.7505,23.8759 L18.7505,25.8759 L25.6255,25.8759 L25.6255,34.3769 L18.9315,34.3769 L18.9315,36.3769 L26.6255,36.3769 C27.1785,36.3769 27.6255,35.9299 27.6255,35.3769 L27.6255,25.8759 L27.6255,23.8759 L27.6255,14.3759 Z" fill="#8C4FFF"/>
        </g>

        <!-- 右矢印 -->
        <g class="arrow-right">
            <path d="M37.2515,26.8369 L37.2515,22.9149 L39.2125,24.8759 L37.2515,26.8369 Z M41.3335,24.1689 L36.9585,19.7939 C36.6725,19.5079 36.2445,19.4219 35.8685,19.5769 C35.4945,19.7319 35.2515,20.0969 35.2515,20.5009 L35.2515,23.8759 L27.6255,23.8759 L27.6255,25.8759 L35.2515,25.8759 L35.2515,29.2519 C35.2515,29.6559 35.4955,30.0219 35.8685,30.1759 C35.9925,30.2279 36.1225,30.2519 36.2515,30.2519 C36.5115,30.2519 36.7675,30.1499 36.9585,29.9589 L41.3335,25.5829 C41.7245,25.1919 41.7245,24.5599 41.3335,24.1689 L41.3335,24.1689 Z" fill="#8C4FFF"/>
        </g>

        <!-- データパルス（光が左から右へ流れる） -->
        <rect class="data-pulse" x="20" y="24.1" width="6" height="1.6" rx="0.8" fill="#B07FFF" opacity="0"/>

    </g>
</svg>
