<?xml version="1.0" encoding="UTF-8"?>
<svg xmlns="http://www.w3.org/2000/svg" version="1.1" viewBox="0 0 720 480">
  <!-- Generator: Adobe Illustrator 30.1.0, SVG Export Plug-In . SVG Version: 2.1.1 Build 136)  -->
  <defs>
    <style>
      .st0 {
        fill: #eb610e;
      }
    </style>
  </defs>
  <g id="F">
    <path id="_パス_1010" data-name="パス_1010" class="st0" d="M282.1,210.6h-28.7c-.4,0-.7.3-.8.6l-10.1,37.5c0,.2,0,.5.3.6,0,0,.1,0,.2,0h3.9c.3,0,.6-.3.8-.6l4.4-16.3h22.2c.3,0,.6-.3.8-.6l1.1-3.9c0-.2,0-.5-.3-.6,0,0-.1,0-.2,0h-22.2l3.1-11.7h24.2c.4,0,.7-.3.8-.6l1-3.9c0-.2,0-.5-.3-.6,0,0,0,0-.1,0Z"/>
  </g>
  <g id="O">
    <g id="_グループ_1634" data-name="グループ_1634">
      <path id="_パス_1011" data-name="パス_1011" class="st0" d="M310.7,209.6c-12.1.6-22.4,8.8-25.8,20.4-3,11.3,3.7,20.4,14.9,20.4,12.1-.6,22.4-8.8,25.8-20.4,3-11.3-3.7-20.4-14.9-20.4ZM320.5,230c-2.6,8.7-10.3,14.8-19.4,15.3-6.3.3-11.6-4.5-11.9-10.7,0-1.5.2-3.1.7-4.5,2.6-8.7,10.3-14.8,19.4-15.3,6.3-.3,11.6,4.5,11.9,10.7,0,1.6-.2,3.1-.7,4.6h0Z"/>
    </g>
  </g>
  <g id="R">
    <path id="_パス_1005" data-name="パス_1005" class="st0" d="M361.4,212.7h-11.1c-1.9,0-3.8.5-5.5,1.4l.8-2.8c0-.2,0-.5-.3-.6,0,0-.1,0-.2,0h-3.9c-.4,0-.7.3-.8.6l-3.1,11.5c0,0,0,.1,0,.2l-1.5,5.5h0l-5.5,20.4c0,.2,0,.5.3.6,0,0,.1,0,.2,0h3.9c.4,0,.7-.3.8-.6l7-26.1c.9-2.8,3.5-4.8,6.4-4.9h11.1c.4,0,.7-.3.8-.6l1-3.9c0-.2,0-.5-.3-.6,0,0-.1,0-.2,0Z"/>
  </g>
  <g id="G">
    <path class="st0" d="M401.6,230.4c0-.2,0-.5-.3-.6,0,0-.1,0-.2,0h-3.9c-.3,0-.6.3-.8.6l-.3,1.3c-3.1,7.8-10.4,13-18.8,13.4-6.3.3-11.6-4.5-11.9-10.8,0-1.5.2-3.1.7-4.6,2.6-8.7,10.4-14.8,19.4-15.3,5.4-.3,10.3,3.3,11.5,8.6,0,.1.1.2.2.2,0,0,0,0,.1,0l4.6-1.9c.1,0,.2-.2.3-.3,0,0,0,0,0-.1-1.6-7.1-8.1-12-15.3-11.5-12.1.6-22.5,8.8-25.9,20.4-3,11.3,3.7,20.4,14.9,20.4,6.3-.2,12.3-2.6,17-6.8l-4.2,15.8c-2.9-4.5-8-7.2-13.4-6.9-12.1.6-22.4,8.8-25.9,20.4-3,11.3,3.7,20.4,14.9,20.4,9.7-.5,18.5-5.9,23.3-14.4l3.2-8.7,10.6-39.7ZM385.1,272.8c-2.6,8.7-10.3,14.8-19.4,15.3-6.3.3-11.6-4.5-11.9-10.7,0-1.5.2-3.1.7-4.5,2.6-8.7,10.3-14.8,19.4-15.3,6.3-.3,11.6,4.5,11.9,10.8,0,1.5-.2,3.1-.7,4.5Z"/>
  </g>
  <g id="E">
    <path id="_パス_1003" data-name="パス_1003" class="st0" d="M446.3,227.4h-21.7c-.4,0-.7.3-.8.6l-1,3.9c0,.2,0,.5.3.6,0,0,.1,0,.2,0h26.8c.4,0,.7-.3.8-.6,0,0,.3-1,.5-1.9s.4-1.9.4-1.9h0c2-8-2.9-16-10.9-18-.9-.2-1.8-.4-2.8-.4-12.1-.2-23,7.2-27.1,18.6-4,11.2,1.7,21.1,12.6,22.1,8.5.3,16.6-3.3,22-9.9,0,0,0,0,0-.1,0-.1,0-.2,0-.3l-3.3-2.3s0,0-.1,0c-.1,0-.2,0-.3.1-4,4.9-10.1,7.6-16.4,7.3-8.2-.8-12.5-8.2-9.5-16.6,3.1-8.5,11.3-14.1,20.3-13.9,6.1.3,10.7,5.4,10.5,11.5,0,.3,0,.5,0,.8h0c0,.2-.2.4-.4.4Z"/>
  </g>
  <g id="V">
    <path id="_パス_1006" data-name="パス_1006" class="st0" d="M507.4,210.6h-5.1c-.4,0-.7.2-.9.5l-19.8,31.8-2.2-31.7c0-.3-.3-.6-.6-.6h-4.6c-.3,0-.5.2-.5.5,0,0,0,0,0,0l3.3,37.6c0,.3.3.6.6.6h5.1c.4,0,.7-.2.9-.5l24.1-37.8c.2-.3,0-.5-.3-.5Z"/>
  </g>
  <g id="I">
    <path id="_パス_1008" data-name="パス_1008" class="st0" d="M510.9,248.8c-.1.3-.4.6-.8.6h-4.2c-.2,0-.4-.2-.5-.4,0,0,0-.1,0-.2l10.1-37.6c.1-.3.4-.6.8-.6h4.2c.2,0,.4.2.5.4,0,0,0,.1,0,.2l-10.1,37.6Z"/>
  </g>
  <g id="S">
    <path id="_パス_1009" data-name="パス_1009" class="st0" d="M528,238.5c0,.2-.1.3-.2.5-.9,3.5,2.5,6.4,7.7,6.4s10.2-2.9,11.2-6.4-2.8-4.9-7.6-6.4c-7.1-2-11.7-5.2-10.1-11.5,2.5-6.9,9-11.5,16.3-11.4,7.2,0,11.8,5,10.2,11.3h0c0,.2-.2.3-.3.3l-4.7.6h0c-.1,0-.2,0-.2-.2,0,0,0,0,0,0h0c0-.2,0-.3.1-.4.9-3.5-2-6.4-6.5-6.4-4.3-.1-8.2,2.4-9.9,6.4-.9,3.5,1.9,4.8,6.3,6.4,7.3,2.2,13.1,5.1,11.4,11.4-1.7,6.3-9.6,11.4-17.6,11.4s-13.1-5.1-11.5-11.4c0,0,0-.1,0-.2l4.9-.7h0c.1,0,.2,0,.2.2,0,0,0,0,0,0h0Z"/>
  </g>
  <g id="I2">
    <path id="_パス_1007" data-name="パス_1007" class="st0" d="M564,248.8c-.1.3-.4.6-.8.6h-4.2c-.2,0-.4-.2-.5-.4,0,0,0-.1,0-.2l10.1-37.6c.1-.3.4-.6.8-.6h4.2c.2,0,.4.2.5.4,0,0,0,.1,0,.2l-10.1,37.6Z"/>
  </g>
  <g id="O2">
    <path id="_パス_1012" data-name="パス_1012" class="st0" d="M609.2,244.8c7.7-4.9,10.4-14.9,10.4-14.9h0c2.9-11.2-3.8-20.3-15-20.3-12.1.6-22.4,8.8-25.8,20.4-3,11.3,3.7,20.4,14.9,20.4,5.6-.1,11.1-2.1,15.5-5.6ZM595.1,245.3c-6.3.3-11.6-4.5-11.9-10.7,0-1.5.2-3.1.7-4.5,2.6-8.7,10.3-14.8,19.4-15.3,6.3-.3,11.6,4.5,11.9,10.7,0,1.5-.2,3.1-.7,4.5-2.6,8.7-10.3,14.8-19.4,15.3Z"/>
  </g>
  <g id="N">
    <path id="_パス_1004" data-name="パス_1004" class="st0" d="M659.8,224.8c2.2-5.8-.8-12.3-6.6-14.5-1.4-.5-3-.8-4.5-.7-9,.5-16.7,6.6-19.3,15.2l-3.8,14.2-2.6,9.8c0,.2,0,.5.3.6,0,0,.1,0,.2,0h4.2c.4,0,.7-.3.8-.6l1.3-5h0l5.1-19c1.6-5.6,6.6-9.5,12.4-9.8,4-.2,7.4,2.9,7.6,6.9,0,1-.1,2-.4,2.9l-5.1,19h0l-1.3,5c0,.2,0,.5.3.6,0,0,.1,0,.2,0h4.2c.4,0,.7-.3.8-.6l2.6-9.8,3.8-14.2Z"/>
  </g>
  <g id="_x301C_">
    <path id="_パス_10121" data-name="パス_1012" class="st0" d="M609.2,244.8c-20.9,41.8-76.4,11.9-131.7,11.9s-82.4,50.3-86.6,13.4l-3.2,8.7c8.9,23.1,43.4-17.1,88.5-17.1s126,33.2,142.9-29.8c.2-.7.4-1.4.5-2.1"/>
  </g>
  <g id="circle">
    <ellipse class="st0" cx="129.7" cy="196.7" rx="18.9" ry="9.9"/>
  </g>
  <g id="circle2">
    <ellipse class="st0" cx="227.6" cy="196.7" rx="15.2" ry="8.1"/>
  </g>
  <g id="circle3">
    <ellipse class="st0" cx="104.2" cy="236.8" rx="15.2" ry="8.1"/>
  </g>
  <g id="circle4">
    <ellipse class="st0" cx="188.2" cy="236.8" rx="19" ry="9.9"/>
  </g>
  <g id="circle5">
    <ellipse class="st0" cx="78.4" cy="276.9" rx="19" ry="9.9"/>
  </g>
  <g id="line">
    <rect class="st0" x="142" y="193.9" width="78.2" height="5.6"/>
  </g>
  <g id="line2">
    <rect class="st0" x="113.1" y="234" width="60.9" height="5.6"/>
  </g>
</svg>