<?xml version="1.0" encoding="UTF-8"?>
<svg id="_レイヤー_1" data-name="レイヤー_1" xmlns="http://www.w3.org/2000/svg" version="1.1" viewBox="0 0 512 512">
  <!-- Generator: Adobe Illustrator 30.1.0, SVG Export Plug-In . SVG Version: 2.1.1 Build 136)  -->
  <defs>
    <style>
      .st0 {
        fill: #898989;
      }
    </style>
  </defs>
  <path class="st0" d="M417.6,146.1H94.4c-5.6,0-10.1-4.5-10.1-10.1s4.5-10.1,10.1-10.1h323.3c5.6,0,10.1,4.5,10.1,10.1s-4.5,10.1-10.1,10.1Z"/>
  <path class="st0" d="M417.6,266.1H94.4c-5.6,0-10.1-4.5-10.1-10.1s4.5-10.1,10.1-10.1h323.3c5.6,0,10.1,4.5,10.1,10.1s-4.5,10.1-10.1,10.1Z"/>
  <path class="st0" d="M417.6,386.1H94.4c-5.6,0-10.1-4.5-10.1-10.1s4.5-10.1,10.1-10.1h323.3c5.6,0,10.1,4.5,10.1,10.1s-4.5,10.1-10.1,10.1Z"/>
</svg>