<?xml version="1.0" encoding="UTF-8"?>
<svg id="_レイヤー_1" data-name="レイヤー_1" xmlns="http://www.w3.org/2000/svg" version="1.1" viewBox="0 0 512 512">
  <!-- Generator: Adobe Illustrator 30.1.0, SVG Export Plug-In . SVG Version: 2.1.1 Build 136)  -->
  <defs>
    <style>
      .st0 {
        fill: #898989;
      }
    </style>
  </defs>
  <path class="st0" d="M497.6,176.1c-3.6-3.5-9.2-3.2-12.9-1-14.7,13.9-194.7,195.3-218.4,218.7-1.7-14.1,2.5-285.7-1.6-304.3-5.4-9.2-17.4-5.6-18.8,4.3,0,74.8,0,226.6,0,299.5,0,.5,0,.6-.4.3-2-2-18.1-18.1-40.7-40.8-44-43.9-140.5-141.1-176.2-176.6-4-3.8-11.7-3.7-15.2,1.1-2.8,3.8-2.2,10.3,1,13.4,15.2,15.1,173.2,173.8,228.6,229.2,3.6,3.4,8.4,8.6,14.4,7.7,5-.7,8.8-5.3,11.9-8,9.1-9,133.3-133.7,181.7-182.2,25.5-25.7,43.1-43.1,47.3-47.4,2.7-3.4,3.2-10-.5-13.7h-.1Z"/>
</svg>